<?xml version="1.0" encoding="UTF-8" standalone="no"?>
<!-- Created with Inkscape (http://www.inkscape.org/) -->

<svg
   xmlns:dc="http://purl.org/dc/elements/1.1/"
   xmlns:cc="http://creativecommons.org/ns#"
   xmlns:rdf="http://www.w3.org/1999/02/22-rdf-syntax-ns#"
   xmlns:svg="http://www.w3.org/2000/svg"
   xmlns="http://www.w3.org/2000/svg"
   version="1.1"
   width="121"
   height="123.77323"
   id="svg3976">
  <g
     id="layer1"
     transform="translate(-314.5,-470.47557)">
    <g
       transform="translate(-194.13584,150.8067)"
       id="g3933">
      <path
         d="m 509.13584,366.2239 c 8.87906,-33.13708 42.93987,-52.8021 76.07695,-43.92304 21.43594,5.74374 38.17931,22.48711 43.92305,43.92304 0,0 -6.09923,-6.07815 -10,-6.07815 -3.90077,0 -10,6.07815 -10,6.07815 0,0 -6.09923,-6.07815 -10,-6.07815 -3.90077,0 -10,6.07815 -10,6.07815 0,0 -6.09923,-6.07815 -10,-6.07815 -3.90077,0 -10,6.07815 -10,6.07815 0,0 -6.09923,-6.07815 -10,-6.07815 -3.90077,0 -10,6.07815 -10,6.07815 0,0 -6.09923,-6.07815 -10,-6.07815 -3.90077,0 -10,6.07815 -10,6.07815 0,0 -6.09923,-6.07815 -10,-6.07815 -3.90077,0 -10,6.07815 -10,6.07815 z"
         id="path2985-6-3"
         style="color:#000000;fill:#000000;fill-opacity:1;stroke:#000000;stroke-width:0.99999994;stroke-miterlimit:4;stroke-opacity:1;stroke-dasharray:none;marker:none;visibility:visible;display:inline;overflow:visible;enable-background:accumulate" />
      <path
         d="m 567.42674,364.89583 0,61.87321 c 0,9.34738 5.48085,16.17306 12.23879,16.17306 6.75795,0 12.23635,-6.83606 12.23635,-16.18344 0,0 -1.07806,-1.02674 -1.75904,-1.03964 -0.64261,-0.0122 -1.69589,0.91753 -1.69589,0.91753 0,6.70817 -3.93157,13.01592 -8.78142,13.01592 -4.84984,0 -8.78142,-6.30775 -8.78142,-13.01592 l -7.6e-4,-61.74072 z"
         id="path3775-7-4-6"
         style="color:#000000;fill:#000000;fill-opacity:1;stroke:#000000;stroke-width:1;stroke-linecap:butt;stroke-linejoin:miter;stroke-miterlimit:4;stroke-opacity:1;stroke-dasharray:none;stroke-dashoffset:117.14173317;marker:none;visibility:visible;display:inline;overflow:visible;enable-background:accumulate" />
    </g>
  </g>
</svg>
